<svg width="78" height="77" viewBox="0 0 78 77" fill="none" xmlns="http://www.w3.org/2000/svg">
<path d="M36.4344 27.39C25.4787 27.5273 0 28.8674 0 38.3141C0 48.4638 29.5598 49.2537 38.62 49.2537C47.6802 49.2537 77.2401 48.4638 77.2401 38.3141C77.2401 33.4897 71.2213 31.3774 66.694 30.2075C62.1257 29.0289 56.1203 28.1754 49.3011 27.7262C49.4562 30.0505 49.5613 32.4539 49.6111 34.9089C59.7597 35.6273 65.8094 37.1794 68.594 38.3273C64.5339 39.9992 54.2514 42.1027 38.62 42.1027C22.9211 42.1027 12.6309 39.9849 8.60292 38.3098C12.4139 36.706 21.8195 34.7266 36.5252 34.5388C37.4885 34.5267 38.3886 34.1433 39.0607 33.46C39.7327 32.7768 40.0959 31.8739 40.0826 30.9183C40.0582 28.9729 38.4429 27.39 36.4344 27.39Z" fill="url(#paint0_linear_1209_51152)"/>
<path d="M27.5941 38.3141C27.5941 47.3027 28.3891 76.6293 38.6196 76.6293C43.4835 76.6293 45.6115 70.6603 46.7885 66.172C47.961 61.709 48.8424 55.6005 49.2908 48.9197C46.6158 49.0877 44.1334 49.1745 42.0541 49.2163C41.3289 59.288 39.7634 65.2877 38.6074 68.0514C36.9223 64.0234 34.8009 53.8198 34.8009 38.3141C34.8009 22.7797 36.9267 12.5784 38.6141 8.56135C40.2339 12.4565 42.3044 22.191 42.4328 36.9092C42.4494 38.8622 44.0659 40.4539 46.0677 40.4539C48.0529 40.4352 49.6561 38.8183 49.6395 36.8465C49.5598 27.6316 48.7228 18.9901 47.2857 12.5125C45.3901 3.97536 42.6365 0 38.6196 0C28.3891 0 27.5941 29.3254 27.5941 38.3141Z" fill="url(#paint1_linear_1209_51152)"/>
<defs>
<linearGradient id="paint0_linear_1209_51152" x1="0.000276799" y1="38.3161" x2="77.2404" y2="38.3161" gradientUnits="userSpaceOnUse">
<stop stop-color="#45C3F3"/>
<stop offset="0.5" stop-color="#1671C2"/>
<stop offset="0.959876" stop-color="#2056AE"/>
<stop offset="1" stop-color="#2056AE"/>
</linearGradient>
<linearGradient id="paint1_linear_1209_51152" x1="38.6171" y1="76.6292" x2="38.6171" y2="-0.000817584" gradientUnits="userSpaceOnUse">
<stop stop-color="#2056AE"/>
<stop offset="0.25" stop-color="#2056AE"/>
<stop offset="0.280093" stop-color="#2056AE"/>
<stop offset="0.625" stop-color="#A32B9B"/>
<stop offset="1" stop-color="#ED1443"/>
</linearGradient>
</defs>
</svg>
